<svg id="Layer_1" data-name="Layer 1" xmlns="http://www.w3.org/2000/svg" viewBox="0 0 888 637.96"><defs><style>.cls-1{fill:#f2f2f2;}.cls-2{fill:#2685c6;}.cls-3{fill:#3f3d56;}.cls-4{fill:none;stroke:#3f3d56;stroke-miterlimit:10;stroke-width:2px;}.cls-5{fill:#fff;}.cls-6{fill:#57b894;}.cls-7{isolation:isolate;font-size:120px;fill:#64e1f2;font-family:ArialMT, Arial;}</style></defs><g id="b68b2dea-431f-4b15-9350-961d32a371b9"><path class="cls-1" d="M776,295.51,643.75,130.25a44.4,44.4,0,0,1-21.39,10.8c-24.9,4.9-49.21-12.1-54.31-38a48,48,0,0,1,16.56-46.72L539.52,0,282.61,219.56,519.1,515.08Z" transform="translate(0 0)"/><circle class="cls-1" cx="611.67" cy="95.91" r="37.28"/><rect class="cls-2" x="383.16" y="259.85" width="17.45" height="50.79" transform="translate(-80.17 395.27) rotate(-49.17)"/><rect class="cls-2" x="628.05" y="496.95" width="17.45" height="45.02" transform="translate(-172.61 661.65) rotate(-49.17)"/><path class="cls-3" d="M687,399.81v1c0,2.57-.1,5.13-.22,7.68a171,171,0,0,1-341.41,2.23c-.23-3.61-.35-7.26-.35-10.93A170.17,170.17,0,0,1,376.46,301c1.64-2.32,3.35-4.61,5.12-6.85,1.22-1.56,2.48-3.08,3.74-4.59a171,171,0,0,1,238.3-22.62c2.06,1.67,4.08,3.38,6.06,5.15q2.37,2.1,4.66,4.31a170.52,170.52,0,0,1,52.07,109.06Q687,392.56,687,399.81Z" transform="translate(0 0)"/><path class="cls-2" d="M516,592.32c-106.14,0-192.5-86.32-192.5-192.51A191.84,191.84,0,0,1,374.87,268.9l4.26,4a186.06,186.06,0,0,0-49.81,127c0,102.94,83.75,186.69,186.69,186.69a185.27,185.27,0,0,0,134-56.72l4.17,4A191,191,0,0,1,516,592.32Z" transform="translate(0 0)"/><rect class="cls-2" x="495.07" y="588.25" width="48.85" height="48.85"/><path class="cls-2" d="M381.58,294.12a1.09,1.09,0,0,1,.23.14c.92.76-.23,2.21-.09,3.41.16,1.54,2.21,1.87,3.76,2s3.5,1.41,2.76,2.78c-3.88,1.34-7.81,0-11.78-1.5A170.19,170.19,0,0,0,345,399.81q0,5.52.35,10.93a4.17,4.17,0,0,0,1.06.57c1.16.45,2.51.37,3.58,1,.85.5,1.42,1.39,2.27,1.85,2.43,1.33,5.8-1.22,8.07.36a19,19,0,0,1,1.66,1.7c2.1,1.82,5.54.59,8,2,1.56.87,2.36,2.61,3.2,4.19,2.08,4,5.45,7.85,9.91,8.16a25.77,25.77,0,0,1,4.21.14c1.37.31,2.72,1.51,2.5,2.89-.38,2.39.79,5,.48,7.38-.57,4.36-6.75,6.27-7.27,10.63a25,25,0,0,1-.17,2.87c-.27,1.14-1.13,2.07-1.44,3.21-.58,2.16,1,4.31,2.65,5.75s3.73,2.71,4.66,4.74.5,4.65.81,7c.7,5.1,5.11,8.88,9.64,11.33a9.87,9.87,0,0,1,3.77,2.74c1.17,1.69,1.05,3.91,1.45,5.92.95,4.92,5.09,9,5.21,14,.08,3.58-1.9,6.81-3.09,10.17a23.48,23.48,0,0,0-1.05,11,171.8,171.8,0,0,0,21.08,15.3,6.17,6.17,0,0,0,.88-2,3.85,3.85,0,0,0-1.81-4A9.51,9.51,0,0,0,429,537.5a3.28,3.28,0,0,0,.61-3.7c2,.26,4.48.39,5.83-1.18,1.08-1.26,1-3.14.58-4.74a19.89,19.89,0,0,1-1.17-4.81,86.6,86.6,0,0,0,14.22-.48,9.22,9.22,0,0,0-4.33-5.42c2.14-.36,4.08-2.92,4.76-5a12.74,12.74,0,0,0,.09-6.43,3.54,3.54,0,0,1-.07-1.68,3.35,3.35,0,0,1,1.7-1.64l10.61-6.09a6.33,6.33,0,0,0,1.7-1.25c1.1-1.31.94-3.28.37-4.89s-1.48-3.14-1.7-4.84c-.65-5.09,4.79-8.74,6.63-13.53a20.19,20.19,0,0,0,1-5.92c.15-2.16.16-4.67-1.49-6s-4.07-1-5.73-2.28-2.05-3.34-3.71-4.26-3.4-.3-5.09-.7c-2.95-.68-4.81-4.09-7.84-4.4-1.69-.19-3.63.65-5-.34s-1.28-2.64-1.51-4.13a11.55,11.55,0,0,0-9.31-9.33c-1.76-.28-3.66-.17-5.16-1.14s-2.2-2.8-3.4-4.16c-1.91-2.18-4.93-3-7.76-3.62l-11.5-2.7c-2-.49-4.67-.74-5.77,1a7.7,7.7,0,0,0-.68,2.15,6.67,6.67,0,0,1-6.25,4.7,7.43,7.43,0,0,0-4.36-3.37,30.69,30.69,0,0,1-3.53-.84,5,5,0,0,1-2.27-6.63c0-.08.08-.17.13-.25a6.18,6.18,0,0,0-1.06-7.41c-1.95-1.75-4.78-2.18-7.41-2-.69-1.5.47-3.19,1.7-4.28s2.74-2.15,3-3.78c.43-2.56-2.84-4.5-5.31-3.75s-4.06,3.18-5.11,5.55a16.88,16.88,0,0,1-2.06,3.95,4.07,4.07,0,0,1-3.91,1.6c-2.05-.52-2.82-3-3.28-5a32.58,32.58,0,0,1-1.09-8.39,11,11,0,0,1,3.16-7.63c3.39-3.11,8.6-2.81,13.17-2.31a3.36,3.36,0,0,1,.35-4.42,5,5,0,0,1,4.56-1.12,6.25,6.25,0,0,1,3.52,2.11c1.31,1.58,1.68,3.73,2.65,5.52s3.2,3.34,5,2.37c1.57-.83,1.81-3,1.43-4.73s-1.22-3.41-1.08-5.18c.26-3.36,3.76-5.39,6.85-6.78s6.6-3.25,7.09-6.6a6.22,6.22,0,0,1,.37-1.91,3.62,3.62,0,0,1,1.39-1.3c9-5.95,18.14-12,28.43-15.22.53-.17.59,0,1.14-.12.76-.44.25-1.66-.48-2.15s-1.71-.87-1.9-1.73A6.11,6.11,0,0,1,431,343a2.38,2.38,0,0,0-2.21-2.51,2.26,2.26,0,0,0-.89.12c-.83-1.1.8-2.36,2.12-2.74a58.26,58.26,0,0,1,12.16-2,2.14,2.14,0,0,1,1.38.23,1.65,1.65,0,0,1,.11,2.26,12.82,12.82,0,0,1-1.85,1.68,5.1,5.1,0,0,0-1.33,5.11c2.16,1.09,4.48,2.22,6.87,1.84s4.47-3.06,3.36-5.19-4.17-2.44-4.7-4.62c-.63-2.55,3-4.82,2.16-7.3-.35-1.1-1.44-1.75-2.28-2.53a6.9,6.9,0,0,1-1.5-7.61,8.64,8.64,0,0,1-7.58-2.37c-1.82-1.83-3.26-4.72-5.84-4.63-2.36.07-4.4,2.83-6.61,2-.55-.21-1.12-.63-1.64-.38a1.34,1.34,0,0,0-.62,1c-.55,2.69.41,5.75-1.05,8.07-1.6,2.53-5.28,2.87-7.22,5.15-1,1.24-1.45,2.9-2.42,4.2s-3,2.14-4.16,1a5.73,5.73,0,0,0-1.56-7,15.2,15.2,0,0,0-3.44-1.67A20.37,20.37,0,0,1,398.4,323a3.86,3.86,0,0,1-1.41-1.51,3.53,3.53,0,0,1,.09-2.4,9.8,9.8,0,0,1,7.79-6.44c1.53-.21,3.32-.14,4.35-1.32.53-.61.81-1.56,1.6-1.8a2.43,2.43,0,0,1,1.48.17l5.75,2a4.06,4.06,0,0,0,2,.34,1.38,1.38,0,0,0,1.2-1.46c-.19-.95-1.65-1.41-1.51-2.37a1.53,1.53,0,0,1,.48-.82A20.59,20.59,0,0,1,436.55,301c.72,1.2-.42,2.61-1.38,3.62s-1.72,2.84-.56,3.62a3.2,3.2,0,0,0,1.52.35,13.22,13.22,0,0,1,4.07,1.23q3,1.29,5.85,2.84a7.41,7.41,0,0,1,.14-3.77,2.56,2.56,0,0,1,3-1.64c1.14.44,1.72,2,2.94,2.09,1.62.19,2.26-2.21,1.58-3.7s-2-2.72-2.12-4.36c-.09-1.09.33-2.45-.54-3.12a2.38,2.38,0,0,0-1-.37l-21.92-4c-1.3-.25-3.18-.06-3.24,1.25,0,.75.63,1.48.34,2.15s-1.34.67-2.08.92a2.84,2.84,0,0,0-1.63,3,8.19,8.19,0,0,0,1.37,3.36c-1.43-.59-3.58-.69-5-1.3a19.21,19.21,0,0,0-1.26-4.83,1.7,1.7,0,0,0-1.92-1.44h0l-.29.07-5.65.86a2.27,2.27,0,0,0-1.29.5c-.73.78,0,2,0,3.1a2.92,2.92,0,0,1-2.24,2.5,8.47,8.47,0,0,1-3.58-.05l-7.91-1.22a12.91,12.91,0,0,0,6-4c1.05-1.23,1.61-3.54.1-4.12a3.52,3.52,0,0,0-1.37-.1c-3.59,0-6.41-3-9.76-4.24a9.54,9.54,0,0,0-3.3-.6Z" transform="translate(0 0)"/><path class="cls-2" d="M686.78,408.51a4.21,4.21,0,0,1-3.56,1.69c-3.64-.32-5.18-5.56-8.78-6.16a1.44,1.44,0,0,0-1,.1c-.53.29-.62,1-.66,1.61-.15,3-.28,6.12.9,8.89,1.71,4.05,6.14,7.45,5.21,11.74-5-2.32-7.61-7.94-8.78-13.32s-1.38-11-3.49-16.13c-1.62,2.05-5,.36-6.46-1.81s-2.26-4.42-3.61-6.5-3.42-3.93-5.88-4.05-4.85,1.67-6.83,3.35a16,16,0,0,0-4.25,4.72c-1.38,2.8-1,6.08-1.09,9.18-.07,3.35-.78,6.9-3.07,9.37s-6.51,3.31-9,1.09a10.14,10.14,0,0,1-2.52-4.55,219,219,0,0,1-6.84-24.4c-.42,1.88-2.08,4.31-3.67,3.21a3.33,3.33,0,0,1-.83-1.1c-3-5-8.41-8-13.94-9.79S587.31,373,581.86,371a42.88,42.88,0,0,1-8.71-4.33,6.83,6.83,0,0,0-.42,7,5.61,5.61,0,0,0,6.3,2.64c1.21-.4,2.24-1.23,3.43-1.65s2.82-.21,3.34.95-.25,2.44.13,3.61c.57,1.75,3.23,1.89,4.16,3.5a3.22,3.22,0,0,1-.87,3.74,16.05,16.05,0,0,1-3.51,2.17c-3.91,2.17-6.69,5.88-10.11,8.77s-8.25,5-12.32,3.15c1-4.92-4.88-8.53-6-13.42-.36-1.62-.17-3.33-.67-4.9-.73-2.28-2.76-3.84-4.41-5.56a21.91,21.91,0,0,1-6-15.88c.09-2,.47-4.08,0-6.06s-2.09-3.87-4.12-3.79c-4.61.21-10.44.56-12.86-3.39-.87-1.4-1.25-3.46,0-4.54a4.37,4.37,0,0,1,3.34-.57c3.48.33,6.94.68,10.42,1,2.43.23,5.06.43,7.15-.84s3-4.65,1.06-6.15c-1.4-1.09-3.94-1-4.36-2.77-.34-1.45,1.27-3.09.4-4.31-.62-.87-2-.63-2.86,0a18.51,18.51,0,0,1-2.41,2.1c-1.67.86-3.64,0-5.43-.52s-4.19-.6-5,1.06c-1,1.85.85,4.29-.11,6.15-1.28,2.46-5.58,1.06-7.37,3.18-2,2.42,1.39,6.05.71,9.14a5.72,5.72,0,0,1-5.62-.31,5.45,5.45,0,0,1-2.35-5.08c.16-1.39.89-2.82.41-4.14a4.84,4.84,0,0,0-2.46-2.24l-10.12-5.6c-.94,1.75.25,3.9,1.74,5.22s3.33,2.29,4.31,4a5.27,5.27,0,0,1-2,6.95,1.19,1.19,0,0,1-1,.18,1.43,1.43,0,0,1-.65-.87c-1.78-4.58-4.47-9.08-8.75-11.46s-10.44-1.9-13.26,2.12c-.66,1-1.11,2-1.7,3.05-3.08,5.37-9.71,7.9-15.9,7.74a3,3,0,0,1-1.73-.41c-1-.68-.95-2.15-.8-3.36.22-1.71.43-3.41.65-5.12a4.06,4.06,0,0,1,1.13-2.8c1.15-.91,2.8-.34,4.27-.36a5.37,5.37,0,0,0,4.89-3.78,6.07,6.07,0,0,0-1.7-6c-.66-.63-1.55-1.42-1.21-2.27a1.91,1.91,0,0,1,1.32-.88c2.62-.76,5.4-1,8-1.86s5.08-2.74,5.7-5.4c.18-.81.26-1.8,1-2.21a3.08,3.08,0,0,1,1.16-.23,5.67,5.67,0,0,0,4.85-5.9c1.23-.86,3-.22,4.17.7s2.24,2.13,3.69,2.52c2.71.75,5.33-1.66,8.15-1.67,1.18,0,2.4.42,3.51,0s1.8-1.53,2.66-2.35,2.39-1.34,3.19-.44c-.23-1.69-.45-3.37-.69-5a9.91,9.91,0,0,0,8.07-1.47l-8.79-3a2,2,0,0,1-.82-.44c-.64-.69,0-1.76.51-2.54,1.24-1.87,1.45-5-.59-5.89-1.4-.64-3,.13-4.33.88l-6.42,3.57c-.2,1.22,1.29,1.92,2.21,2.73a3.71,3.71,0,0,1-2.42,6.48,4.62,4.62,0,0,1,.82,3.92l-4.31.31a1.87,1.87,0,0,1-1.4-.27c-.46-.41-.39-1.13-.51-1.74a3.72,3.72,0,0,0-3.16-2.75,11,11,0,0,0-4.41.4,2.73,2.73,0,0,1-1.91,0,1.91,1.91,0,0,1-.74-1,4.85,4.85,0,0,1,1-4.67,26.85,26.85,0,0,1,3.68-3.39,21.5,21.5,0,0,0,6.39-9.89c2.37-1,4.82-2.35,7.21-3.35a29.37,29.37,0,0,1,6-2,28.12,28.12,0,0,1,5.87-.28l8,.15a19.33,19.33,0,0,1,7,1c2.2.9,4.14,2.87,4.29,5.24a1.64,1.64,0,0,1-.52,1.48,1.84,1.84,0,0,1-1,.23c-2.22.07-3.16.63-5.38.71,1.41,1.5,3,3.08,5,3.35,3.61.47,6.2-3.27,7.87-6.51a3.16,3.16,0,0,0,3.31,2.94,6.71,6.71,0,0,0,2.5-1,49.17,49.17,0,0,1,23.33-6,2.5,2.5,0,0,1,1.92-2.77c1.66-.33,3.15,1.1,4,2.59s1.29,3.21,2.57,4.33,3.72,1.06,4.22-.55-1.12-2.87-2.46-3.79-2.76-2.59-1.85-3.94c6.84-1.53,13.74-3,20.75-3.34a8.86,8.86,0,0,0,3.49-.6,2.72,2.72,0,0,0,1.63-2.88,7.93,7.93,0,0,1-8.26-3.12c7.2-.59,14.74-1.11,21.66.5l6.06,5.15c-1.15,1.19-2.69,2.32-1.85,3.52a2.56,2.56,0,0,0,2.13.73c1.46,0,2.93.06,4.38.06a170.52,170.52,0,0,1,52.07,109.06c-2.45-.09-4.69,3-4.38,5.7.38,3.13,2.63,5.64,4.25,8.34a11.78,11.78,0,0,1,.72,1.36Z" transform="translate(0 0)"/><line class="cls-4" y1="636.96" x2="888" y2="636.96"/><circle class="cls-4" cx="366.35" cy="65.27" r="14.76"/><circle class="cls-4" cx="802.35" cy="346.27" r="14.76"/><circle class="cls-4" cx="701.62" cy="199.27" r="14.76"/><circle class="cls-3" cx="604.81" cy="323.92" r="16.56"/><circle class="cls-5" cx="658" cy="270.7" r="21.83"/><path class="cls-6" d="M680.07,248.07a30.86,30.86,0,0,0-43.64.54h0c-11.9,12.2-28.89,73.81-28.89,73.81s61.17-18.51,73.07-30.71a30.86,30.86,0,0,0-.52-43.63ZM648,280.93a14.3,14.3,0,1,1,20.23-.25h0a14.3,14.3,0,0,1-20.22.26Z" transform="translate(0 0)"/></g><g id="Layer_2" data-name="Layer 2"><text class="cls-7" transform="translate(177 228.82)">LIVE</text></g></svg>