<svg id="a3386fed-3d80-43e9-a677-097ead221e66" xmlns="http://www.w3.org/2000/svg" viewBox="0 0 768.46 516.13"><defs><style>.cls-1{fill:#fff;}.cls-2{fill:#ff2300;}.cls-3{fill:#ffc52e;}.cls-4{fill:#8db900;}.cls-10,.cls-5{fill:#2685c6;}.cls-6{fill:#a0616a;}.cls-7{fill:#2f2e41;}.cls-8{fill:#ccc;}.cls-11,.cls-9{fill:#e6e6e6;}.cls-10,.cls-9{isolation:isolate;opacity:0.5;}</style></defs><path class="cls-1" d="M759.36,344h-442a1,1,0,0,1,0-2h442a15,15,0,0,0,15-15V17a15,15,0,0,0-15-15h-470a15,15,0,0,0-15,15V219a1,1,0,0,1-2,0V17a17,17,0,0,1,17-17h470a17,17,0,0,1,17,17V327A17,17,0,0,1,759.36,344Z" transform="translate(-7.91 0)"/><rect class="cls-1" x="265.13" y="32.58" width="503" height="2"/><circle class="cls-2" cx="284.13" cy="19.54" r="6"/><circle class="cls-3" cx="301.38" cy="19.54" r="6"/><circle class="cls-4" cx="318.63" cy="19.54" r="6"/><path class="cls-1" d="M677.86,101h-310a15.5,15.5,0,0,1,0-31h310a15.5,15.5,0,0,1,0,31Zm-310-29a13.5,13.5,0,0,0,0,27h310a13.5,13.5,0,0,0,0-27Z" transform="translate(-7.91 0)"/><path class="cls-5" d="M675.86,180h-60a15.5,15.5,0,0,1,0-31h60a15.5,15.5,0,0,1,0,31Z" transform="translate(-7.91 0)"/><path class="cls-5" d="M675.86,232h-60a15.5,15.5,0,0,1,0-31h60a15.5,15.5,0,0,1,0,31Z" transform="translate(-7.91 0)"/><path class="cls-5" d="M675.86,284h-60a15.5,15.5,0,0,1,0-31h60a15.5,15.5,0,0,1,0,31Z" transform="translate(-7.91 0)"/><path class="cls-6" d="M249.36,293.58a11.09,11.09,0,0,0-6.53.6,10.7,10.7,0,0,0-1.31.66l-44.74-20.08-1.26-12.14-19.29-.51.13,20.2a10.89,10.89,0,0,0,7.86,10.34l52.32,14.89c.12.38.23.71.36,1a11,11,0,0,0,10.17,6.78,10.37,10.37,0,0,0,2.29-.25,9.21,9.21,0,0,0,1.27-.36v-20.8A10.82,10.82,0,0,0,249.36,293.58Z" transform="translate(-7.91 0)"/><polygon class="cls-6" points="119.14 504.23 131.4 504.23 137.23 456.94 119.14 456.94 119.14 504.23"/><path class="cls-7" d="M163,515.61H124.42V500.72h23.64A14.89,14.89,0,0,1,163,515.61Z" transform="translate(-7.91 0)"/><polygon class="cls-6" points="55.41 491.01 66.69 495.84 90.67 454.67 74.03 447.54 55.41 491.01"/><path class="cls-7" d="M91.84,515.61,56.42,500.44h0l5.87-13.68h0L84,496.06a14.89,14.89,0,0,1,7.82,19.55Z" transform="translate(-7.91 0)"/><circle class="cls-6" cx="149.45" cy="173.43" r="24.56"/><path class="cls-7" d="M139.61,492.66l-13.49-2.57a4.48,4.48,0,0,1-3.64-4.88l9-87.25a3.5,3.5,0,0,0-6.7-1.74L85.66,487.39a4.5,4.5,0,0,1-5.91,2.36l0,0-11-4.88a4.49,4.49,0,0,1-2.44-5.54L93,399.15a3.38,3.38,0,0,0,.16-.7l8.67-73.25a4.51,4.51,0,0,1,2.78-3.64L132,310.44a4.49,4.49,0,0,1,4.83.94L171.4,345a4.49,4.49,0,0,1,1.27,4.1l-27.8,140a4.51,4.51,0,0,1-4.42,3.62A4,4,0,0,1,139.61,492.66Z" transform="translate(-7.91 0)"/><path class="cls-8" d="M124.23,329.24c-4.79-5.54-8.28-8.05-10.67-7.66s-3.73,3.7-5.18,7.2c-2,4.79-4.22,10.21-9.74,10.63a4.62,4.62,0,0,1-4.56-1.87c-4.34-6.45,6.07-27.82,7-29.74l-.49-101.06a4.49,4.49,0,0,1,2.35-4c28.62-15.43,67.26,11.41,74.71,16.95h0a4.5,4.5,0,0,1,1.81,3.85c-.9,16.92-5.38,102.32-5.38,121.37,0,5.27-1.82,8.62-5.41,9.95a10.77,10.77,0,0,1-3.77.62C154,355.49,136.05,342.93,124.23,329.24Z" transform="translate(-7.91 0)"/><path class="cls-8" d="M164.16,280.17a4.45,4.45,0,0,1-2-3.57l-1.94-45.26a11.75,11.75,0,0,1,22.71-4.69l14.51,38a4.51,4.51,0,0,1-2.6,5.81l-26.58,10.15A4.48,4.48,0,0,1,164.16,280.17Z" transform="translate(-7.91 0)"/><path class="cls-6" d="M96.62,350.9A10.74,10.74,0,0,1,93.7,336a9.93,9.93,0,0,1,1.19-1.47L90.2,229.61l23.2,2.73-2.69,102.39A10.8,10.8,0,0,1,96.62,350.9Z" transform="translate(-7.91 0)"/><path class="cls-8" d="M80.51,257.55a4.43,4.43,0,0,1-.62-4.06l14.32-43a11.75,11.75,0,0,1,22.9,3.72v40.69a4.52,4.52,0,0,1-4.5,4.5H84.16A4.47,4.47,0,0,1,80.51,257.55Z" transform="translate(-7.91 0)"/><path class="cls-7" d="M141.5,190a4.84,4.84,0,0,1-6.35-.32c-5.27-4.92-9.71-10.8-12-17.61-2.58-7.81-1.92-17,3-23.53,4.17-5.56,10.77-8.7,17.27-11.16a28.49,28.49,0,0,1,8-2.07,11,11,0,0,1,7.76,2.18,6.87,6.87,0,0,1,2.27,7.4,25.84,25.84,0,0,1,11.8-6.11,14.3,14.3,0,0,1,8.44.35c3.77,1.55,6.22,5.34,7.35,9.26a16.77,16.77,0,0,1,.22,9.21,11.13,11.13,0,0,1-5.71,7c-3.45,1.62-7.54,1-11.15-.23s-7-3.06-10.76-3.85-8-.33-10.68,2.42c-1.85,1.94-2.59,4.67-3.25,7.27l-3.46,13.54a16.77,16.77,0,0,1-2.16,5.57A3.41,3.41,0,0,1,141.5,190Z" transform="translate(-7.91 0)"/><path class="cls-8" d="M309.15,273.43v46.16l.63.46V273.5A4.34,4.34,0,0,0,309.15,273.43Zm67-30.2L344.2,220.06a10.84,10.84,0,0,0-15.11,2.4L310.42,248.2l-1.27,1.74v99.25a9.54,9.54,0,0,1-9.54,9.54h-5.3l3.07.62a10.39,10.39,0,0,0,2.15.22,10.83,10.83,0,0,0,8.76-4.46l1.3-1.8,68.93-95A10.83,10.83,0,0,0,376.12,243.23Zm1.37,14.35-67.11,92.47-.71,1-.07.1a10.53,10.53,0,0,0,.18-1.94V251.24l.64-.88,19.71-27.15a9.56,9.56,0,0,1,13.32-2.12l31.92,23.17a9.54,9.54,0,0,1,2.12,13.32Z" transform="translate(-7.91 0)"/><path class="cls-8" d="M343.55,281.88a8.44,8.44,0,0,1-5-1.62l-17.94-13a8.51,8.51,0,0,1-1.89-11.87l13-17.94a8.5,8.5,0,0,1,11.87-1.89l17.94,13a8.51,8.51,0,0,1,1.89,11.87l-13,17.94a8.45,8.45,0,0,1-5.55,3.4A8.68,8.68,0,0,1,343.55,281.88Z" transform="translate(-7.91 0)"/><path class="cls-9" d="M315.06,323.19a5.55,5.55,0,0,1-3.26-1.07l-3.15-2.28V272.9l.53,0a5.58,5.58,0,0,1,1.4.26,5.52,5.52,0,0,1,1.57.79l22.65,16.45a5.59,5.59,0,0,1,1.24,7.8h0L319.6,320.88a5.73,5.73,0,0,1-4.54,2.31Z" transform="translate(-7.91 0)"/><path class="cls-1" d="M299.61,218.8H260.17a10.83,10.83,0,0,0-10.81,10.81V349.19A10.83,10.83,0,0,0,260.17,360h39.44a10.81,10.81,0,0,0,10-6.69,10.49,10.49,0,0,0,.6-1.9,8.9,8.9,0,0,0,.19-1.36,6.19,6.19,0,0,0,0-.86V229.61A10.82,10.82,0,0,0,299.61,218.8Zm9.54,130.39a9.54,9.54,0,0,1-9.54,9.54H260.17a9.56,9.56,0,0,1-9.54-9.54V229.61a9.56,9.56,0,0,1,9.54-9.54h39.44a9.54,9.54,0,0,1,9.54,9.54Z" transform="translate(-7.91 0)"/><path class="cls-5" d="M291,270.82H268.81a8.52,8.52,0,0,1-8.5-8.5V240.15a8.52,8.52,0,0,1,8.5-8.5H291a8.51,8.51,0,0,1,8.5,8.5v22.17A8.51,8.51,0,0,1,291,270.82Z" transform="translate(-7.91 0)"/><path class="cls-10" d="M291,320.43H268.81a8.52,8.52,0,0,1-8.5-8.5V289.77a8.51,8.51,0,0,1,8.5-8.5H291a8.49,8.49,0,0,1,8.5,8.5v22.16A8.51,8.51,0,0,1,291,320.43Z" transform="translate(-7.91 0)"/><path class="cls-1" d="M279.89,331.38a8.27,8.27,0,1,0,8.27,8.27h0A8.28,8.28,0,0,0,279.89,331.38Zm0,15.26a7,7,0,1,1,7-7h0A7,7,0,0,1,279.89,346.64Z" transform="translate(-7.91 0)"/><path class="cls-1" d="M258.38,516.13H9.09a1.19,1.19,0,0,1,0-2.38H258.38a1.19,1.19,0,0,1,0,2.38Z" transform="translate(-7.91 0)"/><rect class="cls-11" x="383.44" y="218.49" width="174.82" height="0.8"/><rect class="cls-11" x="383.44" y="187.22" width="174.82" height="0.8"/><rect class="cls-11" x="383.44" y="155.94" width="174.82" height="0.8"/><rect class="cls-11" x="522.9" y="125.07" width="0.8" height="125.1"/><rect class="cls-11" x="487.93" y="125.07" width="0.8" height="125.1"/><rect class="cls-11" x="452.97" y="125.07" width="0.8" height="125.1"/><rect class="cls-11" x="418.01" y="125.07" width="0.8" height="125.1"/><rect class="cls-5" x="418.33" y="156.34" width="70.17" height="31.28"/><path class="cls-5" d="M461.49,185.24" transform="translate(-7.91 0)"/><polygon class="cls-5" points="418.33 185.21 418.33 218.89 454.81 186.41 418.33 185.21"/><path class="cls-5" d="M496.4,186.41v1.21l-.46.4-.92.82c-17.93.54-32.42,13.39-33.07,29.32l-.83.73h0V185.21Z" transform="translate(-7.91 0)"/><path class="cls-11" d="M496.2,188h-.26c-19.07.12-34.58,13.88-34.82,30.87v.4c0,17.25,15.73,31.28,35.08,31.28s35.09-14,35.09-31.28S515.55,188,496.2,188Zm0,61.75c-18.9,0-34.28-13.67-34.28-30.48,0-.38,0-.76,0-1.13.65-15.93,15.14-28.78,33.07-29.32.39,0,.78,0,1.18,0,18.9,0,34.28,13.67,34.28,30.47S515.1,249.77,496.2,249.77Z" transform="translate(-7.91 0)"/><path class="cls-11" d="M477,218.9h-2c0-.18.32-17.84,20.83-19.06l.12,2C477.3,202.94,477,218.25,477,218.9Z" transform="translate(-7.91 0)"/><path class="cls-11" d="M516.44,218.49a17,17,0,0,0-5.6-12.07,21.42,21.42,0,0,0-14.6-5.6h0c-11,0-20,7.89-20.24,17.67,0,.13,0,.27,0,.4a17.15,17.15,0,0,0,6.24,13,21.54,21.54,0,0,0,14,5h0c11.15,0,20.21-8.12,20.21-18.07C516.45,218.76,516.45,218.62,516.44,218.49Z" transform="translate(-7.91 0)"/><path class="cls-5" d="M510.84,206.42l-.61.53-27.44,24.44-.6.53a17.15,17.15,0,0,1-6.24-13c0-.13,0-.27,0-.4.24-9.78,9.23-17.67,20.24-17.67h0A21.42,21.42,0,0,1,510.84,206.42Z" transform="translate(-7.91 0)"/></svg>