<svg id="b597b2ac-12fc-4c5b-9350-00427374281f" xmlns="http://www.w3.org/2000/svg" viewBox="0 0 881.5 636.57"><defs><style>.cls-1{isolation:isolate;opacity:0.2;}.cls-2{fill:#e6e6e6;}.cls-3{fill:#2685c6;}.cls-4{fill:#3f3d56;}.cls-5{fill:none;stroke:#3f3d56;stroke-miterlimit:10;}.cls-6{fill:#ffb6b6;}.cls-7{fill:#2f2e41;}</style></defs><path class="cls-1" d="M226.92,371.46s1.85,37-77.08,82.62c0,0-.09.21,577.76,0,0,0-66-46.86-70.29-99.27" transform="translate(0 0)"/><path class="cls-2" d="M654.86,345V34.13a17.34,17.34,0,0,0,13-16.79h0A17.34,17.34,0,0,0,650.52,0H234.38A17.34,17.34,0,0,0,217,17.34h0a17.34,17.34,0,0,0,17.34,17.34h0l-9.63,310.61-77.35,99s-.65,0,577.76,0C725.16,444.28,724.75,445.29,654.86,345Z" transform="translate(0 0)"/><polygon class="cls-1" points="234.38 34.68 654.86 46.92 655.04 33.92 234.38 34.68"/><rect class="cls-2" x="392.95" y="270.68" width="121.04" height="15.71"/><rect class="cls-2" x="392.95" y="298.62" width="121.04" height="15.71"/><rect class="cls-2" x="392.95" y="326.55" width="121.04" height="15.71"/><rect class="cls-2" x="392.71" y="157.79" width="121.04" height="80.31"/><path class="cls-3" d="M227.13,46.19l-62.07.38s-102.17,54.37-30.46,167c0,0,29.3-6.94,61.69,17C196.29,230.48,215.18,50.43,227.13,46.19Z" transform="translate(0 0)"/><path class="cls-1" d="M208.67,46.75C197.55,93.2,185,213,185,213c-28.94-21.36-55.39-18.1-60.71-17.16Q129,205.18,134.6,214s29.3-6.94,61.69,17c0,0,18.89-180,30.84-184.29Z" transform="translate(0 0)"/><polygon class="cls-4" points="134.22 104.41 128.82 130.62 60.98 118.29 60.96 118.28 59.42 87.44 72.53 87.44 134.22 104.41"/><polygon class="cls-1" points="71.43 87.44 60.98 118.29 60.96 118.28 59.42 87.44 71.43 87.44"/><ellipse class="cls-4" cx="131.9" cy="115.97" rx="7.71" ry="17.74"/><path class="cls-4" d="M91.81,490.77a2.35,2.35,0,0,1-2.36-2.35h0V116a2.36,2.36,0,1,1,4.71,0h0V488.41a2.35,2.35,0,0,1-2.35,2.36Z" transform="translate(0 0)"/><path class="cls-4" d="M124.19,556.32a2.36,2.36,0,0,1-2.31-1.91l-32.39-166a2.36,2.36,0,0,1,4.29-1.74L179.37,517.2a2.35,2.35,0,1,1-3.94,2.58h0l-79-120.51L126.5,553.51a2.35,2.35,0,0,1-1.86,2.76h0A2.3,2.3,0,0,1,124.19,556.32Z" transform="translate(0 0)"/><path class="cls-4" d="M2.35,527a2.34,2.34,0,0,1-2-3.64L89.83,386.88a2.36,2.36,0,0,1,4,2.58L4.33,526A2.38,2.38,0,0,1,2.35,527Z" transform="translate(0 0)"/><path class="cls-3" d="M654.37,46.19l62.07.38s102.17,54.37,30.46,167c0,0-29.3-6.94-61.69,17C685.21,230.48,666.32,50.43,654.37,46.19Z" transform="translate(0 0)"/><path class="cls-1" d="M672.83,46.75C684,93.2,696.52,213,696.52,213c28.94-21.36,55.39-18.1,60.71-17.16A206.16,206.16,0,0,1,746.9,214s-29.3-6.94-61.69,17c0,0-18.89-180-30.84-184.29Z" transform="translate(0 0)"/><polygon class="cls-4" points="747.28 104.41 752.68 130.62 820.51 118.29 820.54 118.28 822.08 87.44 808.97 87.44 747.28 104.41"/><polygon class="cls-1" points="810.07 87.44 820.51 118.29 820.54 118.28 822.08 87.44 810.07 87.44"/><ellipse class="cls-4" cx="749.6" cy="115.97" rx="7.71" ry="17.74"/><path class="cls-4" d="M789.69,490.77a2.35,2.35,0,0,1-2.35-2.35h0V116a2.36,2.36,0,1,1,4.71,0V488.41a2.35,2.35,0,0,1-2.35,2.36Z" transform="translate(0 0)"/><path class="cls-4" d="M757.31,556.32a2.3,2.3,0,0,1-.45-.05,2.35,2.35,0,0,1-1.86-2.76l30.08-154.24-79,120.51a2.35,2.35,0,0,1-3.94-2.58h0l85.59-130.56a2.36,2.36,0,0,1,4.29,1.74l-32.39,166A2.36,2.36,0,0,1,757.31,556.32Z" transform="translate(0 0)"/><path class="cls-4" d="M879.14,527a2.37,2.37,0,0,1-2-1.06L787.72,389.46a2.36,2.36,0,0,1,3.95-2.58h0l89.44,136.49a2.35,2.35,0,0,1-2,3.64Z" transform="translate(0 0)"/><path class="cls-4" d="M387,327.29l16.88-4.7s6.62-1.32,2.58-14.24S394.43,299,394.43,299l-15,4.36-5.92,1.82,8.33,11.68.69,7.78Z" transform="translate(0 0)"/><polygon class="cls-4" points="354.39 293.15 349.1 314.32 376.24 340.63 378.58 341.21 384.8 339.46 390.1 318.3 384.74 312.66 390.22 311.22 378.51 299.86 372.41 301.14 367.51 296.27 370.81 294.95 371.13 293.71 367.12 290.55 354.39 293.15"/><polygon class="cls-3" points="379.83 323.01 376.32 337.01 360.14 321.71 364.19 307.51 379.83 323.01"/><polygon class="cls-5" points="354.39 293.15 353.65 296.12 380.65 322.38 382.98 322.97 389.01 321.34 389.35 321.33 390.1 318.3 384.74 312.66 390.22 311.22 378.51 299.86 372.41 301.14 367.51 296.27 370.81 294.95 371.13 293.71 367.12 290.55 354.39 293.15"/><ellipse class="cls-3" cx="366.87" cy="292.89" rx="1.52" ry="2.25" transform="translate(-6.36 577.63) rotate(-75.94)"/><ellipse class="cls-3" cx="384.02" cy="315.54" rx="1.52" ry="2.25" transform="translate(-15.34 611.42) rotate(-75.94)"/><path class="cls-6" d="M398.25,353.65l-3.69-12.52s9.58-22.83-1.47-25-11.78,21.36-11.78,21.36l4.42,14Z" transform="translate(0 0)"/><circle class="cls-6" cx="329.87" cy="300.05" r="29.26"/><path class="cls-6" d="M339.34,320.7s1.72,21.51,6,23.23-46.47,13.77-46.47,13.77l12.91-14.63s2.58-22.37-3.44-27.53Z" transform="translate(0 0)"/><path class="cls-3" d="M380.57,347l11.78-1.47s14,7.37,14,16.94,8.1,25,8.1,25,5.89,20.63-7.36,22.1-25-22.1-25-22.1Z" transform="translate(0 0)"/><path class="cls-7" d="M387.2,464.13s25.78-24.3,33.14-22.83,22.1,3.68,22.1,14.73-24.31,36.83-24.31,36.83-18.41,40.51-36.09,42A306.31,306.31,0,0,0,347.43,540s8.1,29.46,3.68,37.56-21.36,17.68-22.83,16.94-22.1-19.89-30.94-47.14-14.73-47.87-6.63-49.35S387.2,464.13,387.2,464.13Z" transform="translate(0 0)"/><path class="cls-7" d="M440.23,453.82s5.16-.73,4.42,11.79S441.7,523.06,438,531.9s-4.42,19.15-2.95,22.83,4.42,9.57-.73,10.31-26.52-2.21-28.73-2.95-4.42-13.25-2.94-13.25,5.15-.74,3.68-5.9-2.21-5.15,0-6.63,8.1-3.68,6.63-5.15-3-36.09-3-36.09Z" transform="translate(0 0)"/><path class="cls-7" d="M432.86,562.83s12.53-3.68,14,4.42c0,0,2.21,12.52-7.37,16.94a118.11,118.11,0,0,0-17.67,10.31s-15.47,5.89-16.21-1.47,2.95-33.88,2.95-33.88Z" transform="translate(0 0)"/><path class="cls-7" d="M349.64,571.67l-23.57-19.15s4.42,23.57-1.48,28l-2.69,7.87,7.54,6.16S352.58,590.82,349.64,571.67Z" transform="translate(0 0)"/><path class="cls-7" d="M316.49,539.26s15.47,4.42,13.26,19.89-5,32.27-5,32.27-.85,41.38-11.9,44.33-14-3-14-3-12.55-32.34-8.83-42c4.5-11.68,11-24.79,8.83-28.73S300.29,537.05,316.49,539.26Z" transform="translate(0 0)"/><path class="cls-3" d="M307.65,336s5.89.73,15.47,2.2,16.2-5.89,21.36-4.41,47.87,11.78,47.87,11.78l-6.62,50.82s8.1,58.92,6.62,69.24S410,474.45,399,487s-30.19,23.57-69.23,19.88-44.19-2.94-44.19-8.84,8.83-56,5.89-60.39-8.84-9.58-5.89-14.73,5.89-8.1,1.47-12.52-6.63-8.84-6.63-11.05S270.09,361,270.09,361s4.42-17.68,9.57-18.42,9.58-4.42,13.26-4.42,5.89.74,8.1,0Z" transform="translate(0 0)"/><path class="cls-7" d="M378.28,289.79c-.38-1.71-2.23-7.4-6-8.79-2.76-1-7.89,1.13-10.45.78l-.33-.94a21.2,21.2,0,0,0-1.37-5.37A27.52,27.52,0,0,0,345,260.08c-8.42-3.52-21.75-6.43-33.3,2.79-15.88,12.67-13.08,31.63-11.93,36.9.2.87.36,1.76.5,2.65.71,4.63,2.76,5.18,2.76,5.18s-.05-.13-.12-.38l14.34,1.4L325,307.3c.13.76.18,1.2.18,1.2,22.62-3.45,35.79-15.37,37.93-17.44,1.88,1.25,5.38,3.28,8.77,3.73C376.89,295.44,378.66,291.49,378.28,289.79ZM320,301.18l-18.22-.66c-.26-5,1-10.79,8.35-11.09,7.06-.28,10.91,5.46,12.95,10.71Z" transform="translate(0 0)"/><ellipse class="cls-7" cx="324.55" cy="257.46" rx="3.22" ry="1.22" transform="translate(-38.69 58.27) rotate(-9.69)"/></svg>