<svg id="ea1a5787-4807-42ae-aba3-2738e8ad7f96" xmlns="http://www.w3.org/2000/svg" xmlns:xlink="http://www.w3.org/1999/xlink" viewBox="0 0 1150.45 675.56"><defs><style>.cls-1,.cls-5,.cls-6{fill:#2685c6;}.cls-1,.cls-10,.cls-4,.cls-6{isolation:isolate;}.cls-1,.cls-11,.cls-4{opacity:0.1;}.cls-2{fill:#464353;}.cls-3{fill:#514e7f;}.cls-6{opacity:0.5;}.cls-7{fill:url(#linear-gradient);}.cls-8{fill:#3f3d56;}.cls-9{fill:#a1616a;}.cls-10{opacity:0.05;}</style><linearGradient id="linear-gradient" x1="501.67" y1="-90.64" x2="501.67" y2="553.35" gradientTransform="matrix(1, 0, 0, -1, -24.78, 563.67)" gradientUnits="userSpaceOnUse"><stop offset="0" stop-color="gray" stop-opacity="0.25"/><stop offset="0.54" stop-color="gray" stop-opacity="0.12"/><stop offset="1" stop-color="gray" stop-opacity="0.1"/></linearGradient></defs><path class="cls-1" d="M1119.63,627.5c-1.08.79-2.19,1.55-3.31,2.3a110.28,110.28,0,0,1-12.91,7.45c-23.46,11.7-52.36,17.41-80.52,21.29-63.15,8.72-127.63,10.41-191.84,12.07-173.47,4.51-347.4,9-520.43-1.38-68.36-4.1-138.25-11-200.21-32q-13.3-4.51-26.12-9.94C67,619.94,50.45,611,36.66,600.37c-13-10-23.46-21.5-29.74-34.56C-6.18,538.59.75,508,15.7,481.35a262,262,0,0,1,21-31c11.52-15,24.23-29.57,35.85-44.57,41.32-53.42,68.28-120.89,30.14-175.61-11-15.72-26.81-29.52-35.74-45.93-11.41-21-10.52-44.31-6.89-67,.46-2.86,1-5.7,1.49-8.54C67.78,75.13,79.38,39,115.29,18,152.59-3.79,205.54-2.69,251.85,5.1c72,12.12,138.42,37.43,205.49,60.29s137.32,43.74,211.08,46c65.12,2,141.09-12.87,184.31-51.46,42-37.48,120.9-40.33,177.8-17.69,39,15.54,68.15,43.53,80.44,75a93.79,93.79,0,0,1,5.35,19.54,85.51,85.51,0,0,1,1,18.43,82,82,0,0,1-1,9c-9.5,62.13-77.91,111.13-119.49,166.63-20.32,27.11-34.67,59.67-20.7,88.9,21.31,44.54,95.42,60.37,140.19,93.53a102.36,102.36,0,0,1,22,21.34C1160,564.13,1152,604,1119.63,627.5Z" transform="translate(0 0)"/><ellipse class="cls-1" cx="537.69" cy="650.7" rx="269.64" ry="9.16"/><polygon class="cls-2" points="759.68 647.63 750.81 647.63 685.93 312.7 677.61 647.63 668.19 647.63 657.65 313.26 594.43 647.63 584.45 647.63 627.42 303.38 628.82 292.19 713.11 282.76 715.73 303.38 759.68 647.63"/><rect class="cls-2" x="526.98" y="215.62" width="53.65" height="33.27"/><path class="cls-2" d="M838.27,201.07,870.71,188h7.11a3.91,3.91,0,0,1,3.91,3.91v91.36a3.91,3.91,0,0,1-3.91,3.91h-7.11l-32.44-13.51Z" transform="translate(0 0)"/><rect class="cls-2" x="771.94" y="205.23" width="66.33" height="64.25"/><rect class="cls-3" x="656.8" y="84.55" width="42.7" height="7.76"/><rect class="cls-3" x="608.08" y="94.6" width="120.19" height="87.75"/><rect class="cls-4" x="608.08" y="171.96" width="120.19" height="10.4"/><rect class="cls-4" x="770.91" y="205.23" width="2.69" height="64.25"/><rect class="cls-4" x="562.33" y="215.62" width="18.3" height="33.27"/><polygon class="cls-4" points="715.73 303.38 627.42 303.38 628.82 292.19 713.11 282.76 715.73 303.38"/><rect class="cls-3" x="563.99" y="173.62" width="207.94" height="128.09" rx="10.7"/><path class="cls-3" d="M837.64,201.07h.63v72.57h-.63a5.19,5.19,0,0,1-5.19-5.19h0V206.26A5.19,5.19,0,0,1,837.64,201.07Z" transform="translate(0 0)"/><path class="cls-3" d="M870.71,188h6.73a4.29,4.29,0,0,1,4.29,4.29v90.62a4.29,4.29,0,0,1-4.29,4.29h-6.73V188Z" transform="translate(0 0)"/><rect class="cls-4" x="526.98" y="215.62" width="9.57" height="33.27"/><rect class="cls-3" x="516.17" y="205.23" width="18.71" height="56.56" rx="7.2"/><circle class="cls-2" cx="608.08" cy="94.6" r="59.89"/><circle class="cls-5" cx="608.08" cy="94.6" r="44.92"/><circle class="cls-2" cx="719.12" cy="95.85" r="43.67"/><circle class="cls-5" cx="719.12" cy="95.85" r="32.75"/><circle class="cls-5" cx="715.73" cy="192.68" r="5.75"/><circle class="cls-6" cx="734.02" cy="192.68" r="5.75"/><path class="cls-7" d="M661.65,212.52l-.41-.81a35.89,35.89,0,0,1,7.26,3.34c-1-8.69-34.33-33.09-40.33-33.09S615.5,171.6,615.5,171.6s-17.33-2.67-20-5.5-20.67-1.18-25-.18-11-2.67-11-2.67-3.67-6-8.33-6-9.65-6.68-9.65-6.68-4.35-4-8.35-4.68-9-5-11.34-8.35-14-5-20.66-4-24.67-1.36-24.67-1.36c7.33-3.34,9.1-11.36,9.1-11.36C479,120.48,461.8,106,461.8,106s.71,4.68,1.53,11.21l-1.11-1.43-.15.12a109,109,0,0,1-.15-14c0-.36.06-.72.08-1.09a31.14,31.14,0,0,0,9.76-30.69c-.18-.76-.39-1.5-.63-2.23a13.82,13.82,0,0,0,4,1h.71A5.88,5.88,0,0,0,480.23,67h0a4.69,4.69,0,0,0,.49-.76l.09-.16a5.45,5.45,0,0,0,.3-.76,2.86,2.86,0,0,0,.07-.28,6.18,6.18,0,0,0,.12-.62v-.92a11.83,11.83,0,0,0-1-4.46c-1.05-2.58-2.56-5.13-2.45-7.92a4.91,4.91,0,0,1,.08-.67c.28-2.19,1.43-4.22,2.12-6.33V44c.1-.31.18-.62.25-.93,0-.09.06-.19.08-.28a10.56,10.56,0,0,0,.15-1.11v-.08c.26-4.18-3.11-7.83-6.93-9.52-3.42-1.52-7.33-1.93-10.46-4-3.57-2.35-5.53-6.42-8.17-9.79-3.84-4.9-9.85-8.56-16-7.86-3.79.43-7.23,2.42-11,3.19-5.73,1.19-11.79-.54-17.49.79a6,6,0,0,0-3.56,2,4.14,4.14,0,0,0-.72,1.81h0a6.93,6.93,0,0,0,0,1.82v.05a12.25,12.25,0,0,0,.31,1.71l.09.35a1.47,1.47,0,0,0,.08.35l.19.7c.11.39.2.78.3,1.18v.14c.09.41.18.82.25,1.24h0a21.06,21.06,0,0,1,.32,2.62h0a12,12,0,0,1-1.53,7.12c-2.5,4-7.81,5.77-10.12,9.94a8.49,8.49,0,0,0-1,3.25h0a8.7,8.7,0,0,0,0,1.14V50a3.8,3.8,0,0,0,.09,1v.24a8.63,8.63,0,0,0,.2.88.9.9,0,0,0,.08.28,7.19,7.19,0,0,0,.4,1h0c1.07,2.23,3.09,4.07,3.51,6.49h0a.37.37,0,0,0,.05.22c.23,1.82-.52,3.6-.91,5.39q-.07.33-.12.66h0v1.33a1.31,1.31,0,0,0,0,.28v.65a1.59,1.59,0,0,0,.1.37l.07.25a3.73,3.73,0,0,0,.16.35l.11.22a2.71,2.71,0,0,0,.24.35l.12.16a2.67,2.67,0,0,0,.46.43c1.38,1,3.53.74,4.66,2a2.37,2.37,0,0,1,.32.5l.06.12a2.76,2.76,0,0,1,.19.55h0a5.47,5.47,0,0,1,0,2.28c-.4,2-1.25,3.82-1.7,5.78-.09.4-.15.81-.2,1.22h0a2,2,0,0,1-.05.55v.78a3.25,3.25,0,0,0,.06.76c.06.25,0,.24.06.35l.06.29a1.43,1.43,0,0,0,.11.39l.09.25c.05.14.12.28.18.42a1.14,1.14,0,0,0,.1.19,3.5,3.5,0,0,0,.36.58c1.21,1.64,3.2,2.19,5.3,2.2a16.85,16.85,0,0,0,3.54-.4c.26.61.53,1.22.82,1.81a31.1,31.1,0,0,0,5.63,7.92,7.54,7.54,0,0,1-.1.93c-.23,2.28-.51,4.73-.83,7.2-2.59-1.19-4.59-1.65-5.38-.79-3.35,3.68,0,16.38,0,16.38s-16.35,0-20.35,3.67-11.33,0-11.33,0-15,1.68-14,4.69-8,0-8,0-6.34.67-6,5-9.67,6.34-8.34,9.35-6,5-6,5-7.33-.33-4.66,4h0s-4,9.36-7.33,10-7.67,8.35-7.67,8.35-12.84,2.34-12.26,6.35-19.74,32.7-19.74,32.7-6.67,13.75-2,23.78,8,16.71,9,20.38,13.12,19.83,13,22.84c0,.94,3,6,7.09,12.42l-1.2,1.24-2.63,2.71S302.14,316,312.14,317c8.45.84,14.52,1.45,17.6.61a4.26,4.26,0,0,0,1.4-.61l.12-.09c3.64,5.37,6.22,9.12,6.22,9.12s.36-.53,1-1.44l1,1.43s.8-1.14,2.16-3c-.44,9.09-.5,18.05-.5,18.05s4.34-.67,2.34,19.38,12,36.42,12,36.42v29.75h0a19.94,19.94,0,0,0,.14,2c.37,4.27,1.59,14.34,5.19,21,4.67,8.68,0,31.41,0,31.41s-.31,18.54.81,41.66c0,.63.07,1.28.1,1.92-20.22,16.9-41.91,39.3-41.91,39.3a11.1,11.1,0,0,1,3,1.35l-1.21,1.55-5.51,6.79h0l-4.26,5.26h0l6.75,20.79,7.37-2.88s4,6.93,3.16,11.63a5,5,0,0,1-1,2.33,3,3,0,0,0-.52,1.15c-1.93,7.53,6.12,40,18.89,41.41,0,0,4.33,1.43,5.72-2.47.67-1.88.66-5-.84-10.07,0,0-6.75-8.14-2.38-16.91,2.56-5.13,6.79-12,9.85-16.85l1.26-2c2.75,3.47,4.44,5.7,4.44,5.7l9.82-10.56c.21.45.42.89.64,1.31a30.67,30.67,0,0,0,2.54,4.22L384.19,632l2.69-.6c-.06.64-.1,1.32-.14,2-.22,4.74,0,10.89,2.19,15.28,1.64,3.36,4.41,5.7,8.93,5.59,15.5-.38,20-8.77,20-8.77v-21l5.33-1.19s-.39-46.14-1.76-71.87c0-.57-.06-1.12-.09-1.66v-.23l34.23-36.81,2.63-1c22-8.69,22.34-31.08,22.34-31.08s0-12.36,2.66-22.72.34-64.17-4.66-77.53S471.87,352,471.87,352s5-7,0-12.83a25.59,25.59,0,0,1-3.5-5.72l6.51-1.07,3.75-.62,2-.34c-1,8.84-1.17,15.63,1.2,17.25,7.34,5,32-11.7,32-11.7-9,0-14-67.17-12.17-68.84s4.56-35.33,2.17-41.33S512.22,194,512.22,194l1.66-2.46h0S553.22,208.7,557.55,212s18-8,20.33-3.63,17,10.88,17,10.88,21.67-2.19,24,3.16,16.34,17.88,16.34,17.88a76,76,0,0,1,.53-8.79c.29.69.57,1.39.87,2.1,6.64,15.71,17.69,35.6,27.93,24.9C676.15,246.33,667.32,223.85,661.65,212.52Zm-296.49,71v.19l-.08-.08Zm-7.76-77.08-4.24,44.71-8.33,8.63-1,1.06-8.61-9.37s-4.34-2,0-5.68-7.33-12-7.33-12-.34-6,4-7.68,10-12.7,10-12.7l15.67-8h0Zm55.76,228.84a5.13,5.13,0,0,1,1-.73c1.87-1.06,3.07.1,3.69,2.14a17.21,17.21,0,0,1-.71,10.28c-2.33,5.35,3.34,26.74,3.34,26.74s-7.34,3.33-8.67,9.69a6.75,6.75,0,0,1-1,2.18c-.09-.56-.17-1.1-.25-1.62-.65-4-1-6.58-1-6.58a42.54,42.54,0,0,1-.67-15.7c1.06-6.43,3.2-19.49,4-24.44.2-1.2.31-1.92.32-2Z" transform="translate(0 0)"/><path class="cls-2" d="M459.64,109.7l2.16-1.44,6.09,12.85-2.34,2.75h-7.08s.25-7,.42-7.25S459.64,109.7,459.64,109.7Z" transform="translate(0 0)"/><path class="cls-8" d="M417.83,619.05v27.5s-4.5,8.37-20,8.75a9.1,9.1,0,0,1-8.93-5.57c-2.16-4.38-2.41-10.52-2.19-15.25a59.72,59.72,0,0,1,.75-7.06Z" transform="translate(0 0)"/><path class="cls-4" d="M417.83,619.05v8.51l-31.12,6.92a59.72,59.72,0,0,1,.75-7.06Z" transform="translate(0 0)"/><path class="cls-3" d="M423.16,624.38l-39,8.67-6.66-26.34A32.68,32.68,0,0,1,375,602.5c-.43-.84-.85-1.73-1.25-2.66-7.26-16.61-10.49-46.57-11.87-72.06-.07-1.29-.14-2.57-.2-3.83-1.12-23.06-.81-41.56-.81-41.56s4.67-22.67,0-31.33c-3.6-6.68-4.82-16.72-5.19-21-.1-1.27-.14-2-.14-2l.72-1.89,2.94-7.78H391.5l18.8,15.91,2.86,2.42-.32,2c-.81,4.94-2.95,18-4,24.38a42.32,42.32,0,0,0,.67,15.66s.39,2.54,1,6.57c.15,1,.32,2.06.51,3.21,2.39,14.78,6.87,41.77,8.78,48.22.53,1.77,1,6.21,1.35,12.22.08,1.2.15,2.45.22,3.76C422.77,578.36,423.16,624.38,423.16,624.38Z" transform="translate(0 0)"/><path class="cls-4" d="M417.83,646.27v.28s-4.5,8.37-20,8.75a9.1,9.1,0,0,1-8.93-5.57C395.85,651.44,407.13,652.54,417.83,646.27Z" transform="translate(0 0)"/><path class="cls-9" d="M664.5,260.38c-10.28,10.67-21.28-9.17-27.93-24.84-3.73-8.82-6.07-16.33-6.07-16.33l27.36-11.58s1.68,2.67,3.79,6.9C667.32,225.83,676.15,248.25,664.5,260.38Z" transform="translate(0 0)"/><path class="cls-9" d="M462,104.17a124.55,124.55,0,0,0,2.21,29.54s-55.66,6-50.66-2.66c2.93-5.08,4.83-18.49,5.89-28.74.77-7.26,1.11-12.93,1.11-12.93s53.33-21.33,45.33-3.33C463.44,91.42,462.33,97.78,462,104.17Z" transform="translate(0 0)"/><polygon class="cls-2" points="466.65 247.38 459.17 336.71 493.5 331.05 487.5 257.38 489.5 237.71 466.65 247.38"/><polygon class="cls-4" points="493.5 331.19 478.59 333.65 459.16 336.85 460.53 320.55 466.65 247.52 474.44 244.22 479.96 241.89 489.5 237.85 487.5 257.52 493.5 331.19"/><path class="cls-8" d="M349,624.78c-4.37,8.75,2.38,16.87,2.38,16.87,1.5,5.07,1.51,8.17.84,10-1.39,3.89-5.72,2.46-5.72,2.46-13.62-1.5-21.87-38.24-18.37-42.45S326,597.78,326,597.78l-7.37,2.87-6.75-20.74,4.26-5.25,5.51-6.78,3.73-4.6,37.25,38.87S361,604.54,358.8,608C355.74,612.78,351.51,619.68,349,624.78Z" transform="translate(0 0)"/><path class="cls-4" d="M421.4,552.69,375,602.5c-8.14-15.9-11.64-47.8-13.12-74.73,8.65-7.2,17-13.4,23.32-16.39,0,0,21.38-15.47,25.89-22.89,2.39,14.78,6.87,41.77,8.78,48.22C420.46,538.83,421,544.78,421.4,552.69Z" transform="translate(0 0)"/><polygon class="cls-4" points="410.3 434.29 356.22 426.16 359.16 418.38 391.5 418.38 410.3 434.29"/><path class="cls-4" d="M421.22,548.93l-47.47,50.91c-7.3-16.61-10.53-46.57-11.91-72.06-.07-1.29-.14-2.57-.2-3.83,8.73-7.28,17.18-13.54,23.52-16.56,0,0,19.95-14.43,25.38-22.1.15,1,.32,2.06.51,3.21,2.39,14.78,6.87,41.77,8.78,48.22C420.36,538.48,420.8,542.92,421.22,548.93Z" transform="translate(0 0)"/><path class="cls-4" d="M362.58,602.17S361,604.56,358.8,608c-7.95-10-26.8-33.19-37.2-40.09l3.73-4.6Z" transform="translate(0 0)"/><path class="cls-3" d="M483.16,459.37C480.5,469.71,480.5,482,480.5,482s-.34,22.33-22.34,31l-2.63,1-91,97.63s-33.67-44-44.67-46.67c0,0,44.33-45.67,65.33-55.67,0,0,25.34-18.33,26.67-24.66s8.67-9.67,8.67-9.67-5.67-21.33-3.34-26.67a17.11,17.11,0,0,0,.71-10.25c-.62-2-1.82-3.19-3.69-2.14a5.13,5.13,0,0,0-1,.73L355.55,428V398.37s-14-16.33-12-36.33-2.34-19.33-2.34-19.33.21-33.78,3.06-36.6,30.23-15.74,30.23-15.74l85.84,15.25L463.88,322s3,13.06,8,18.86,0,12.79,0,12.79A136,136,0,0,0,478.55,382C483.55,395.39,485.83,449,483.16,459.37Z" transform="translate(0 0)"/><path class="cls-4" d="M465.83,86.05c-2.39,5.37-3.5,11.77-3.88,18.12a31,31,0,0,1-42.56-1.86c.77-7.26,1.11-12.93,1.11-12.93S473.83,68.05,465.83,86.05Z" transform="translate(0 0)"/><path class="cls-9" d="M472.65,79.78a31,31,0,1,1-.86-7.27A31,31,0,0,1,472.65,79.78Z" transform="translate(0 0)"/><path class="cls-4" d="M447.5,133.71S425.22,123.38,423.83,122s-47.61,117.34-47.61,117.34l-13,59S432.55,328,447.55,324s16.33,0,16.33,0,15.34-86,20.34-93.66-4.67-85.67-4.67-85.67L462.22,122Z" transform="translate(0 0)"/><path class="cls-4" d="M447.5,129.71S425.22,119.38,423.83,118s-47.61,117.34-47.61,117.34l-13,59S432.55,324,447.55,320s16.33,0,16.33,0,15.34-86,20.34-93.66-4.67-85.67-4.67-85.67L462.22,118Z" transform="translate(0 0)"/><path class="cls-5" d="M484.16,228.38c-1,1.59-2.51,6.53-4.2,13.37-1.18,4.76-2.46,10.43-3.77,16.53-5.9,27.53-12.36,63.77-12.36,63.77s-.41-1.22-3.3-1.64c-2.34-.34-6.32-.15-13,1.64-15,4-84.34-25.67-84.34-25.67l2-9,11-50s46.34-118.67,47.67-117.33c.81.81,9.47,5,16.07,8.11,4.21,2,7.6,3.55,7.6,3.55l14-11.06.77-.61,17.25,22.67S489.16,220.71,484.16,228.38Z" transform="translate(0 0)"/><path class="cls-4" d="M431.16,143.38c2,7.69-2.66,20.33-2.66,20.33s-16,39.34-20.67,57.52-31.38,54.82-31.38,54.82-3.92,3.93-9.41,9.4c-.61.61-1.25,1.24-1.89,1.9l11-50S422.49,118.68,423.82,120c.81.81,9.47,5,16.07,8.11C435.76,131.89,429.83,138.29,431.16,143.38Z" transform="translate(0 0)"/><path class="cls-2" d="M429.16,143.38c2,7.69-2.66,20.33-2.66,20.33s-16,39.34-20.67,57.52-31.38,54.82-31.38,54.82-3.92,3.93-9.41,9.4c-.65.65-1.33,1.32-2,2-10.72,10.67-25.79,25.63-30.5,30-.69.65-1.16,1.07-1.36,1.21a4.26,4.26,0,0,1-1.4.61c-3.08.84-9.15.23-17.6-.61-10-1-1.66-21.66-1.66-21.66l2.63-2.71,2.4-2.48,27.24-28,2-2.11,8.33-8.59,4.24-44.6.1-1.07s-1.24-2.83-3.15-7.15c-5.09-11.69-15.09-34.25-18.75-41.54-.42-.85-.75-1.48-1-1.87,0,0-.05-.1-.08-.14-2.67-4.33,4.66-4,4.66-4s7.34-2,6-5,8.67-5,8.34-9.33,6-5,6-5,9,3,8,0,14-4.67,14-4.67,7.33,3.67,11.33,0,20.41-3.66,20.41-3.66-3.35-12.67,0-16.34,28.47,16.34,28.47,16.34S427.16,135.7,429.16,143.38Z" transform="translate(0 0)"/><path class="cls-4" d="M345.83,314s27.67,39,47,26.34-26-45.67-26-45.67Z" transform="translate(0 0)"/><path class="cls-9" d="M345.83,312s27.67,39,47,26.34-26-45.67-26-45.67Z" transform="translate(0 0)"/><path class="cls-4" d="M478.59,333.51c2.11-18.41,8.23-46.07,3.24-54.46-2.47-4.16-4.3-12.09-5.64-20.77-.72-4.67-1.29-9.56-1.75-14.2-1.22-12.31-1.61-22.85-1.61-22.85s-12-53.52-9.67-64.52c1.46-6.88-.22-24.12-1.68-36.06l.77-.61,17.25,22.67s9.66,78,4.66,85.67c-1,1.59-2.51,6.53-4.2,13.37l9.54-4-2,19.67,6,73.67Z" transform="translate(0 0)"/><path class="cls-2" d="M461.8,108.26S479,122.71,485.6,123c0,0-1.77,8-9.1,11.34,0,0,18,2.38,24.67,1.35s18.33.65,20.66,4,7.39,7.65,11.39,8.31,8.35,4.67,8.35,4.67L512.22,196s-10.67,26.67-8.34,32.67-.34,39.67-2.17,41.33,3.17,68.67,12.17,68.67c0,0-24.66,16.67-32,11.67s9.34-59,2-71.34-9-57.82-9-57.82-12-53.51-9.66-64.51S461.8,108.26,461.8,108.26Z" transform="translate(0 0)"/><path class="cls-4" d="M661.65,214.53c-8.91-2.78-22.56-2.86-25.08,21-3.73-8.82-6.07-16.33-6.07-16.33l27.36-11.58S659.54,210.3,661.65,214.53Z" transform="translate(0 0)"/><path class="cls-2" d="M525.22,150.71l16.35,2s5,6.67,9.65,6.67,8.33,6,8.33,6,6.67,3.66,11,2.66,22.33-2.65,25,.18,20,5.49,20,5.49S622.22,184,628.22,184s39.33,24.34,40.33,33c0,0-33-21-33.33,25.17,0,0-14-12.5-16.34-17.83s-24-3.16-24-3.16-14.66-6.51-17-10.84-16,6.9-20.33,3.61-43.67-20.41-43.67-20.41l-12.17-22.87Z" transform="translate(0 0)"/><circle class="cls-8" cx="449.83" cy="188.38" r="2.83"/><circle class="cls-8" cx="447" cy="247.47" r="2.83"/><circle class="cls-8" cx="449.83" cy="216.37" r="2.83"/><circle class="cls-8" cx="441.66" cy="278.57" r="2.83"/><path class="cls-4" d="M352.22,651.7c-1.39,3.89-5.72,2.46-5.72,2.46-13.62-1.5-21.87-38.24-18.37-42.45S326,597.78,326,597.78l-7.37,2.87-6.75-20.74,4.26-5.25c4.24,7.35,10.31,17.92,11.74,20.62a37.71,37.71,0,0,1,3.75,18C331.35,619.78,338.89,650.86,352.22,651.7Z" transform="translate(0 0)"/><path class="cls-4" d="M471.79,72.47c-.68-.23-1.36-.5-2-.77-2.29-.93-4.7-2-6.09-4S462,63.22,460,62.16c-2.28-1.22-5,.43-7.47,1-2.94.69-6-.13-8.86-1.18-4.26-1.57-10.21-4.46-14.58-1.47-3.4,2.32-2.08,7.24-2.95,10.75-1.35,5.45-7.14,9-8.23,14.51-.49,2.43-.17,5.4-2.14,6.91a5,5,0,0,1-1.92.84,31,31,0,1,1,57.93-21Z" transform="translate(0 0)"/><path class="cls-2" d="M443.69,60c2.83,1,5.91,1.87,8.86,1.17,2.51-.59,5.18-2.24,7.46-1,2,1.07,2.4,3.68,3.66,5.54s3.8,3.12,6.1,4a17.38,17.38,0,0,0,5.43,1.52,6.15,6.15,0,0,0,5.1-1.93c1.78-2.15,1.24-5.37.18-7.94s-2.56-5.13-2.45-7.91c.13-3.3,2.52-6.17,2.72-9.46.26-4.17-3.11-7.81-6.93-9.5-3.42-1.51-7.33-1.93-10.46-4-3.57-2.34-5.53-6.4-8.17-9.76-3.84-4.89-9.85-8.54-16-7.84-3.79.43-7.23,2.41-11,3.18-5.73,1.19-11.79-.54-17.49.79a6,6,0,0,0-3.56,2c-1.4,1.88-.68,4.51-.06,6.77,1.11,4.07,1.58,8.68-.63,12.26-2.5,4.05-7.81,5.76-10.12,9.92a8.79,8.79,0,0,0-.23,8c1.1,2.3,3.23,4.17,3.56,6.7.23,1.82-.52,3.59-.91,5.37s-.28,4,1.19,5,3.53.75,4.66,2a4,4,0,0,1,.53,3.44c-.4,2-1.25,3.81-1.7,5.77a7.1,7.1,0,0,0,.77,5.77c1.94,2.62,5.86,2.46,9,1.76a6.25,6.25,0,0,0,2.53-1c2-1.51,1.65-4.48,2.14-6.91,1.09-5.5,6.88-9.07,8.23-14.51.87-3.51-.45-8.44,2.95-10.76C433.47,55.49,439.43,58.38,443.69,60Z" transform="translate(0 0)"/><path class="cls-4" d="M438.83,421.71s31.39,20,32.39,27.67Z" transform="translate(0 0)"/><path class="cls-4" d="M437.22,437.71s36,17.33,34,23.33Z" transform="translate(0 0)"/><path class="cls-4" d="M434.83,453s20.34,10.67,21.67,17Z" transform="translate(0 0)"/><path class="cls-4" d="M443.5,477s13.33,11.67,16,8.67S443.5,477,443.5,477Z" transform="translate(0 0)"/><path class="cls-4" d="M424.83,484.38S435.22,501,430.22,502,424.83,484.38,424.83,484.38Z" transform="translate(0 0)"/><path class="cls-4" d="M379.22,188.38S361.55,199,366.88,201.71,379.22,188.38,379.22,188.38Z" transform="translate(0 0)"/><path class="cls-4" d="M379.22,149s-18,33-9.67,30.67S379.22,149,379.22,149Z" transform="translate(0 0)"/><path class="cls-4" d="M570.5,182s-11,12.94-9,20Z" transform="translate(0 0)"/><path class="cls-4" d="M599.22,188.38S582.71,203,585.13,204.71Z" transform="translate(0 0)"/><path class="cls-4" d="M609.5,206.39s-1.67,9.64,1,10Z" transform="translate(0 0)"/><path class="cls-10" d="M429.33,409.78c-4.25,5.5-4.25,15.25-6.17,19.25-1.05,2.2-3.39,6-5.29,9.08-.62-2-1.82-3.19-3.69-2.14-1.23-9.17-3.4-25-4.1-28.19-1-4.5,10-16.5,10-16.5s10.75,2.25,13.5,7.75S433.58,404.29,429.33,409.78Z" transform="translate(0 0)"/><path class="cls-4" d="M373.83,294.05c-12,1.66-34.33,33.66-34.33,33.66s-2.93-4.26-7-10.21c-5.12-7.55-12-17.84-17-25.64l29.3-30.22,5.33,5.74s10.34,10.33,10.34,12.33c0,.78,2,3.15,4.54,5.74C368.9,289.48,373.83,294.05,373.83,294.05Z" transform="translate(0 0)"/><path class="cls-4" d="M335.56,158.72c-.42-.85-.75-1.48-1-1.87l12.92.86,6.85,42.52C349.22,188.57,339.22,166,335.56,158.72Z" transform="translate(0 0)"/><path class="cls-4" d="M363,287.48c-10.72,10.67-25.79,25.63-30.5,30-.69.65-1.16,1.07-1.36,1.21a4.26,4.26,0,0,1-1.4.61c-4.71-6.92-11.43-16.89-16.63-25l2.4-2.48,27.26-28,3.37,3.63s10.34,10.33,10.34,12.33C356.5,280.7,359.73,284.18,363,287.48Z" transform="translate(0 0)"/><path class="cls-2" d="M349.5,157.71l-15-1s-4,9.33-7.33,10S319.5,175,319.5,175s-12.84,2.34-12.28,6.34S287.48,214,287.48,214s-6.67,13.72-2,23.72,8,16.67,9,20.33,12.84,19.67,12.74,22.67,30.26,47,30.26,47,22.33-32,34.33-33.67c0,0-13.33-12.33-13.33-14.33s-10.26-12.33-10.26-12.33l-13-14s-4.34-2,0-5.67-7.33-12-7.33-12-.34-6,4-7.67,10-12.66,10-12.66l15.67-8Z" transform="translate(0 0)"/><path class="cls-4" d="M292.22,224s18-3.66,18.33-1.33S292.22,224,292.22,224Z" transform="translate(0 0)"/><path class="cls-4" d="M307.22,242.21s15.26,2,14.59,5.26S307.22,242.21,307.22,242.21Z" transform="translate(0 0)"/><path class="cls-4" d="M319.83,185.54S334.5,206.31,336.5,202Z" transform="translate(0 0)"/><g class="cls-11"><path d="M408,30.78a22.32,22.32,0,0,0-.9-7.17,22,22,0,0,1-.66-3,12.32,12.32,0,0,0,.66,5A25.22,25.22,0,0,1,408,30.78Z" transform="translate(0 0)"/><path d="M478.11,52.78c.39-3,2.45-5.73,2.64-8.8a7.84,7.84,0,0,0-.06-1.53c-.39,3.1-2.54,5.85-2.66,9A7.43,7.43,0,0,0,478.11,52.78Z" transform="translate(0 0)"/><path d="M480.3,67.28a6.15,6.15,0,0,1-5.1,1.93,17.38,17.38,0,0,1-5.43-1.52c-2.3-.93-4.71-2-6.1-4S462,59.22,460,58.15c-2.28-1.22-5,.43-7.47,1-2.94.7-6-.12-8.85-1.17-4.26-1.57-10.22-4.46-14.59-1.48-3.4,2.32-2.08,7.25-3,10.76-1.35,5.44-7.14,9-8.23,14.51-.49,2.43-.17,5.4-2.14,6.91a6.16,6.16,0,0,1-2.54,1c-3.18.7-7.1.86-9-1.76a5.39,5.39,0,0,1-1-2.55,6.31,6.31,0,0,0,1,4.55c1.94,2.62,5.86,2.46,9,1.76a6.16,6.16,0,0,0,2.54-1c2-1.51,1.65-4.48,2.14-6.91,1.09-5.5,6.88-9.07,8.23-14.51.87-3.51-.45-8.44,3-10.76,4.37-3,10.33-.09,14.59,1.48,2.83,1.05,5.91,1.87,8.85,1.17,2.52-.59,5.19-2.24,7.47-1,2,1.07,2.39,3.68,3.66,5.54s3.8,3.12,6.1,4a17.38,17.38,0,0,0,5.43,1.52,6.15,6.15,0,0,0,5.1-1.93,5.92,5.92,0,0,0,1.08-4.59A5,5,0,0,1,480.3,67.28Z" transform="translate(0 0)"/><path d="M399.66,60.45c-.33-2.53-2.46-4.4-3.56-6.7a8.57,8.57,0,0,1-.78-2.75,8.73,8.73,0,0,0,.78,4.75c1.07,2.23,3.09,4.07,3.51,6.48A6.25,6.25,0,0,0,399.66,60.45Z" transform="translate(0 0)"/><path d="M405.22,76.07a3.8,3.8,0,0,0-.57-3.17c-1.13-1.29-3.28-1-4.66-2a3.49,3.49,0,0,1-1.31-2.38c-.22,1.63,0,3.43,1.31,4.38s3.53.75,4.66,2A2.73,2.73,0,0,1,405.22,76.07Z" transform="translate(0 0)"/></g></svg>