<svg id="ae72d77f-f397-4021-826a-c0dbbd2dad22" xmlns="http://www.w3.org/2000/svg" viewBox="0 0 808.47 567"><defs><style>.cls-1{fill:#f2f2f2;}.cls-2,.cls-6{fill:#fff;}.cls-3{fill:#ffb8b8;}.cls-4{fill:#2f2e41;}.cls-5{fill:#2685c6;}.cls-6{fill-rule:evenodd;}.cls-7{fill:#3f3d56;}</style></defs><path class="cls-1" d="M469.11,554.42A90.31,90.31,0,0,1,449.72,565c-1.8.72-3.61,1.39-5.45,2H350.34c-.38-.66-.75-1.33-1.13-2-7.62-13.64-14.53-27.81-16.49-43.22-2.35-18.5,4.24-39.45,20.53-48.54a32.14,32.14,0,0,1,6.74-2.82c1-.3,2-.54,3-.75a35.22,35.22,0,0,1,40.95,45.78c13.81-14.16,11.23-37.12,6.47-56.31s-10.55-40.55-.84-57.79c5.39-9.59,14.88-15.54,25.52-17.94l1-.2A51.4,51.4,0,0,1,473,389.68c20.36,12.82,30.81,37.15,34.2,61C512.63,489,500.53,531.77,469.11,554.42Z" transform="translate(0 0)"/><path class="cls-2" d="M370.32,481.89a79.14,79.14,0,0,1,6.84,49.29,81.24,81.24,0,0,1-15,33.82c-.51.68-1,1.35-1.56,2h-3.71c.57-.65,1.13-1.32,1.66-2a76.55,76.55,0,0,0,1.4-94.58c1-.3,2-.54,3-.75A80.29,80.29,0,0,1,370.32,481.89Z" transform="translate(0 0)"/><path class="cls-2" d="M460.18,493a87.12,87.12,0,0,1-6,24.62,76.16,76.16,0,0,1-11.78,19.24c-9.93,11.95-23.07,20.94-37.34,26.92q-1.56.66-3.15,1.26c-1.84.72-3.7,1.38-5.57,2H386.18c2.39-.6,4.77-1.27,7.12-2a119.07,119.07,0,0,0,16.31-6.43,90.53,90.53,0,0,0,33.88-27.79c9.49-13.1,13.68-28.85,14.4-44.86.76-17.13-1.47-34.57-5.38-51.24a214.8,214.8,0,0,0-18.07-49.23,1.55,1.55,0,0,1,.61-2,1.36,1.36,0,0,1,1-.2,1.14,1.14,0,0,1,.76.64c1,1.93,2,3.86,2.89,5.81a217.73,217.73,0,0,1,17,51.08C460.14,457.78,462,475.61,460.18,493Z" transform="translate(0 0)"/><path class="cls-2" d="M42.47,283a42,42,0,1,1,42-42A42,42,0,0,1,42.47,283Zm0-82a40,40,0,1,0,40,40A40,40,0,0,0,42.47,201Z" transform="translate(0 0)"/><path class="cls-2" d="M212.47,148a42,42,0,1,1,42-42A42,42,0,0,1,212.47,148Zm0-82a40,40,0,1,0,40,40A40,40,0,0,0,212.47,66Z" transform="translate(0 0)"/><path class="cls-2" d="M394.47,84a42,42,0,1,1,42-42A42,42,0,0,1,394.47,84Zm0-82a40,40,0,1,0,40,40A40,40,0,0,0,394.47,2Z" transform="translate(0 0)"/><path class="cls-2" d="M588.47,150a42,42,0,1,1,42-42A42,42,0,0,1,588.47,150Zm0-82a40,40,0,1,0,40,40A40,40,0,0,0,588.47,68Z" transform="translate(0 0)"/><path class="cls-2" d="M766.47,251a42,42,0,1,1,42-42A42,42,0,0,1,766.47,251Zm0-82a40,40,0,1,0,40,40A40,40,0,0,0,766.47,169Z" transform="translate(0 0)"/><path class="cls-2" d="M236.47,94.5l5-1s-4.2,4.7-5,5h0a21.45,21.45,0,0,0,0,3c-9.6,41.2-45,23-45,23,12.9.3,14-5,14-5-7.5-1.1-9-6-9-6a3.1,3.1,0,0,0,4-1c-8.1-2.1-7-10-7-10a10.48,10.48,0,0,0,4.9,1.9c-.9-1.1-8.5-10.2-3.9-14.9,0,0,5.6,10,20.3,10.9l1-.2a7.75,7.75,0,0,1-.2-2.2,10.5,10.5,0,0,1,10.5-10.5h0c7,0,8.5,4,8.5,4l5-3C239.47,88.5,239,93.5,236.47,94.5Z" transform="translate(0 0)"/><polygon class="cls-3" points="555.8 539.63 566.81 545.03 592.86 505.14 576.61 497.17 555.8 539.63"/><path class="cls-4" d="M554.75,534.66l21.68,10.63h0a15.39,15.39,0,0,1,7.05,20.59h0l-.22.45-35.5-17.4Z" transform="translate(0 0)"/><polygon class="cls-3" points="664.89 558.44 677.15 558.44 682.99 511.15 664.89 511.15 664.89 558.44"/><path class="cls-4" d="M661.77,550.44h24.14a15.39,15.39,0,0,1,15.39,15.39h0v.5H661.77Z" transform="translate(0 0)"/><circle class="cls-3" cx="638.56" cy="207.53" r="24.56"/><path class="cls-4" d="M663,542.85a4.5,4.5,0,0,1-4.49-4.31L649,412.18a1.49,1.49,0,0,0-1.55-1.45,1.52,1.52,0,0,0-1.28.8l-60.73,116a4.51,4.51,0,0,1-6,1.93L562.54,521a4.51,4.51,0,0,1-2-6l36.24-73.43,24-55c9.27-18.24,19.11-27.65,30.08-28.75,11.26-1.12,23.28,6.62,36.76,23.67l.11.14v.18l-2,154.35a4.48,4.48,0,0,1-4.08,4.48l-18.17,2.26Z" transform="translate(0 0)"/><path class="cls-3" d="M612.64,395.38a10.75,10.75,0,0,0,3.5-14.79,10.31,10.31,0,0,0-1.14-1.51l3.71-97.86-18,2.24-1.52,95.2a10.8,10.8,0,0,0,13.45,16.72Z" transform="translate(0 0)"/><path class="cls-5" d="M624,298.52l-24.17-2.75a4.81,4.81,0,0,1-4.24-5.33,4.19,4.19,0,0,1,.13-.69L602,266.31a13.38,13.38,0,0,1,26.57,3.1l.83,24.16a4.82,4.82,0,0,1-4.65,5,4.22,4.22,0,0,1-.71,0Z" transform="translate(0 0)"/><path class="cls-3" d="M728.15,236.92a11.38,11.38,0,0,0-.24,1.64l-43,24.78-10.44-6-11.13,14.58,17.45,12.43a8,8,0,0,0,9.6-.23l44.29-35a10.5,10.5,0,1,0-6.2-13.49,11.16,11.16,0,0,0-.37,1.25Z" transform="translate(0 0)"/><path class="cls-5" d="M683.52,264.52l-13.89,18a4.5,4.5,0,0,1-6.31.82,5.23,5.23,0,0,1-.49-.45l-15.72-16.32a12.5,12.5,0,0,1,15.33-19.74l19.71,11a4.51,4.51,0,0,1,1.73,6.13,6.49,6.49,0,0,1-.36.55Z" transform="translate(0 0)"/><path class="cls-5" d="M694.84,389.06,668.19,259.23a24.34,24.34,0,0,0-27.85-19.11l-8.89,1.48A23.8,23.8,0,0,0,616,251.26h0a33.24,33.24,0,0,0-5,28.31l14.71,52.65-10.92,56.41a4,4,0,0,0,3.16,4.69,3.71,3.71,0,0,0,1.33,0c5.46-.78,14.47-1.89,24.82-2.5l5.61-21.63L652,390.5c12.71-.35,26.51.27,37.9,3.23a4,4,0,0,0,5-4.67Z" transform="translate(0 0)"/><path class="cls-4" d="M648,202.06c6.31,4.32,14.6,8.77,21,4.16,4.23-3,5.57-8.61,3.85-13.52-3.09-8.83-11.57-12.72-19.68-15.69-10.55-3.88-22-7-32.91-4.19s-20.51,13.32-18.54,24.38c1.58,8.89,10,16.29,8.78,25.25s-11.34,13.75-20.29,15.36-19,2.13-25.39,8.56c-8.2,8.2-6.15,22.85,1.57,31.51s19.36,12.58,30.65,15.25c15,3.53,31.13,5.39,45.33-.48s25.26-21.65,21.15-36.46c-1.74-6.25-5.84-11.54-9.79-16.68s-8-10.53-9.48-16.84c-1.25-5.26-.32-11.37,3.17-15.32a4.42,4.42,0,0,0,.59-5.18Z" transform="translate(0 0)"/><path class="cls-2" d="M405.91,21.22a10.6,10.6,0,0,1,10.56,10.56V52.9a10.59,10.59,0,0,1-10.56,10.55H384.79A10.57,10.57,0,0,1,374.24,52.9V31.78a10.59,10.59,0,0,1,10.55-10.56h21.12m0-4.22H384.79A14.83,14.83,0,0,0,370,31.78V52.9a14.84,14.84,0,0,0,14.78,14.78h21.12A14.83,14.83,0,0,0,420.69,52.9V31.78A14.82,14.82,0,0,0,405.91,17Z" transform="translate(0 0)"/><path class="cls-2" d="M409.08,31.78a3.16,3.16,0,1,1,3.16-3.15,3.16,3.16,0,0,1-3.16,3.15Z" transform="translate(0 0)"/><path class="cls-2" d="M395.35,33.89a8.45,8.45,0,1,1-8.44,8.45,8.45,8.45,0,0,1,8.44-8.45h0m0-4.22A12.67,12.67,0,1,0,408,42.34h0a12.67,12.67,0,0,0-12.67-12.67Z" transform="translate(0 0)"/><polygon class="cls-3" points="163.17 553.73 151.24 550.92 156.4 503.55 174.01 507.7 163.17 553.73"/><path class="cls-4" d="M163.49,566,125,557l.11-.49A15.4,15.4,0,0,1,143.63,545h0l23.5,5.53Z" transform="translate(0 0)"/><polygon class="cls-3" points="209.67 554.13 197.41 554.13 191.58 506.84 209.67 506.84 209.67 554.13"/><path class="cls-4" d="M212.8,566H173.27v-.5a15.38,15.38,0,0,1,15.38-15.38H212.8Z" transform="translate(0 0)"/><path class="cls-3" d="M275.88,367.12a10.74,10.74,0,0,0-3.54-14.78,10.23,10.23,0,0,0-1.69-.84l-35.9-91-20,12.13,41.57,85.66a10.8,10.8,0,0,0,19.53,8.86Z" transform="translate(0 0)"/><path class="cls-5" d="M242.38,275.53,219.57,284a4.81,4.81,0,0,1-6.19-2.84,5.31,5.31,0,0,1-.2-.68l-5-23.74a13.37,13.37,0,0,1,25.11-9.21l11.63,21.19a4.81,4.81,0,0,1-1.9,6.54,4.22,4.22,0,0,1-.65.3Z" transform="translate(0 0)"/><path class="cls-4" d="M208.86,537.16h-.18l-17.38-.69A4.48,4.48,0,0,1,187,531.9l1.33-96a1.5,1.5,0,0,0-3-.18l-10.08,96.11a4.52,4.52,0,0,1-3.74,4h-.06l-16.31-1.29a4.5,4.5,0,0,1-5.13-3.77,5.49,5.49,0,0,1-.05-.7l1-162.78,80,5.07L213.33,533.15A4.53,4.53,0,0,1,208.86,537.16Z" transform="translate(0 0)"/><circle class="cls-3" cx="194.22" cy="200.61" r="24.56"/><path class="cls-5" d="M227,379.5h-.34l-74-5.41a4.51,4.51,0,0,1-4.17-4.58l1.95-92.91a41.91,41.91,0,0,1,83.8-1.92,41.19,41.19,0,0,1-.16,4.71c-1.29,14.32-2.32,76.87-2.6,95.7A4.49,4.49,0,0,1,227,379.5Z" transform="translate(0 0)"/><path class="cls-3" d="M95.15,228.19a9.14,9.14,0,0,1,.24,1.64l43,24.78,10.44-6,11.13,14.58-17.45,12.43a8,8,0,0,1-9.6-.23L88.58,240.43a10.5,10.5,0,1,1,6.2-13.49,11.16,11.16,0,0,1,.37,1.25Z" transform="translate(0 0)"/><path class="cls-5" d="M138.94,252.14a4.49,4.49,0,0,1,2.21-3l19.71-11a12.5,12.5,0,0,1,15.33,19.74l-15.72,16.32a4.49,4.49,0,0,1-6.36.12,3.42,3.42,0,0,1-.44-.49l-13.88-18A4.51,4.51,0,0,1,138.94,252.14Z" transform="translate(0 0)"/><path class="cls-4" d="M206.92,220.05a22.35,22.35,0,0,1-18.85-10.58c-.22-.34-1.4-2.08-2.77-4.09-3.85-5.64-4.75-7-4.82-7.18-1-2.69-4.35-3.73-6.94-4.12-.48-.08-1-.14-1.46-.21-3.65-.49-7.42-1-9.48-5-1.52-2.94-4-14.91-2.1-17.84,2.39-3.67,7-2.48,11.41-1.33,2.83.74,5.77,1.5,8.1,1,10.13-2.11,21.61-4.5,31.75,1.68,8.07,4.91,12.93,14.19,12.67,24.21-.28,10.77-5,19.26-12.56,22.73l-1.58.46-.89.11A20.5,20.5,0,0,1,206.92,220.05Z" transform="translate(0 0)"/><path class="cls-2" d="M767.94,181.8a27.54,27.54,0,0,0-11.05,52.77,24,24,0,0,1,.48-6.32l3.54-15a10.53,10.53,0,0,1-.89-4.35c0-4.09,2.36-7.14,5.31-7.14,2.51,0,3.72,1.89,3.72,4.14,0,2.52-1.61,6.28-2.44,9.77A4.27,4.27,0,0,0,771,221c5.21,0,8.72-6.7,8.72-14.64,0-6-4.07-10.55-11.45-10.55-8.35,0-13.57,6.23-13.57,13.19a8,8,0,0,0,1.82,5.4,1.35,1.35,0,0,1,.4,1.53c-.14.51-.43,1.73-.57,2.22a.94.94,0,0,1-1.08.78,1.14,1.14,0,0,1-.3-.09c-3.84-1.58-5.64-5.78-5.64-10.53,0-7.82,6.6-17.2,19.69-17.2,10.51,0,17.43,7.61,17.43,15.77,0,10.81-6,18.88-14.86,18.88-3,0-5.77-1.61-6.73-3.43,0,0-1.6,6.34-1.94,7.57a22.9,22.9,0,0,1-2.77,5.9,27.54,27.54,0,1,0,7.82-54Z" transform="translate(0 0)"/><path class="cls-2" d="M612.85,91.47l-35.43-10.9a3.62,3.62,0,0,0-4.64,2.17v0l-10.92,35.5a3.9,3.9,0,0,0,2.5,4.75l35.42,10.9a3.7,3.7,0,0,0,4.52-2.59l10.92-35.5a3.41,3.41,0,0,0-2.18-4.3Zm-36.78,27.41L570,117,575.8,98.1l6.08,1.87Zm3.87-22.65h-.05a3.87,3.87,0,1,1,.05,0Zm18.35,29.49-6.08-1.87,3.18-10.34c.76-2.48.4-4.44-1.8-5.12a3.47,3.47,0,0,0-3.81,1.29,4.17,4.17,0,0,0-.67,1.43l-3.31,10.76L579.72,120l5.81-18.9,6.08,1.87-.81,2.63a6.45,6.45,0,0,1,6.43-1.39c4,1.23,6.21,4.79,4.46,10.46Z" transform="translate(0 0)"/><path class="cls-6" d="M69.93,241.16a27.46,27.46,0,1,0-31.75,27.13V249.1h-7v-7.94h7v-6c0-6.88,4.1-10.68,10.37-10.68a42.32,42.32,0,0,1,6.15.54v6.76H51.23c-3.41,0-4.47,2.11-4.47,4.29v5.15h7.61l-1.21,7.94h-6.4v19.18a27.47,27.47,0,0,0,23.17-27.13Z" transform="translate(0 0)"/><path class="cls-7" d="M808,566a1,1,0,0,1-1,1H1a1,1,0,0,1,0-2H807A1,1,0,0,1,808,566Z" transform="translate(0 0)"/></svg>